<?xml version="1.0" encoding="UTF-8"?>
<svg id="uuid-8a97f7b5-b067-456a-af85-d2ebe03ddc1e" data-name="Layer 1" xmlns="http://www.w3.org/2000/svg" viewBox="0 0 5000 5000">
  <defs>
    <style>
      .uuid-561b8b09-7647-405c-aa33-0316273fa167 {
        fill: #f7931e;
      }

      .uuid-561b8b09-7647-405c-aa33-0316273fa167, .uuid-17fdb7e5-038f-4477-b16e-5cf2afc6354d {
        stroke-width: 0px;
      }

      .uuid-17fdb7e5-038f-4477-b16e-5cf2afc6354d {
        fill: #fff;
      }
    </style>
  </defs>
  <rect class="uuid-17fdb7e5-038f-4477-b16e-5cf2afc6354d" width="5000" height="5000"/>
  <g>
    <path class="uuid-561b8b09-7647-405c-aa33-0316273fa167" d="m3434.06,2217.89l-13.04-14.49c-35.55-39.48-55.69-90.39-57.04-143.5,0-.3-.02-.61-.02-.91-1.51-57.11,18.79-112.66,57.02-155.11l.05-.06c81.65-90.68,34.52-235.75-84.84-261.12l-18.99-4.04c-51.91-11.03-98.14-40.29-130.4-82.44-.42-.54-.83-1.08-1.25-1.63-34.65-45.05-50.46-101.8-44.52-158.32h0c12.75-121.36-110.64-211.01-222.12-161.38l-17.75,7.9c-48.64,21.65-103.4,25.06-154.42,9.81-.65-.19-1.3-.39-1.95-.58-54.33-16.1-100.28-52.7-128.61-101.78h0c-61.01-105.68-213.54-105.68-274.56,0l-9.76,16.91c-26.71,46.26-69.26,81.16-119.65,98.88-.39.14-.78.27-1.17.41-53.48,18.89-112.19,16.37-164-6.7l-.09-.04c-111.48-49.63-234.87,40.02-222.12,161.38l2.06,19.59c5.56,52.86-8.06,105.92-38.23,149.67-.19.28-.39.56-.58.84-32.29,46.94-81.31,79.74-137.04,91.59l-.26.06c-119.36,25.37-166.49,170.44-84.84,261.12l13.04,14.49c35.55,39.48,55.69,90.39,57.04,143.5.02.64.03,1.29.05,1.93,1.58,56.76-19.06,111.9-57.05,154.09l-.05.06c-81.65,90.68-34.52,235.75,84.84,261.12l18.99,4.04c51.91,11.03,98.14,40.29,130.4,82.44.42.54.83,1.08,1.25,1.63,34.65,45.05,50.46,101.8,44.52,158.32h0c-12.76,121.36,110.64,211.01,222.12,161.38l17.75-7.9c48.64-21.65,103.4-25.06,154.42-9.81.36.11.72.21,1.07.32,54.62,16.24,101,52.69,129.49,102.04h0c61.01,105.68,213.54,105.68,274.56,0l9.76-16.9c26.71-46.26,69.26-81.16,119.65-98.88.39-.14.78-.27,1.17-.41,53.48-18.89,112.19-16.37,164,6.7l.09.04c111.47,49.63,234.87-40.02,222.12-161.38l-2.06-19.59c-5.56-52.86,8.06-105.92,38.23-149.67.2-.29.4-.58.6-.87,32.28-46.93,81.31-79.72,137.02-91.56l.26-.06c119.36-25.37,166.49-170.44,84.84-261.12Zm-934.06,602.57c-408.43,0-739.53-331.1-739.53-739.53s331.1-739.53,739.53-739.53,739.53,331.1,739.53,739.53-331.1,739.53-739.53,739.53Z"/>
    <path class="uuid-561b8b09-7647-405c-aa33-0316273fa167" d="m2549.63,1712.8l98.76,200.1,220.83,32.09c45.39,6.6,63.52,62.38,30.67,94.4l-159.79,155.76,37.72,219.94c7.75,45.21-39.7,79.68-80.3,58.34l-197.52-103.84-197.52,103.84c-40.6,21.34-88.05-13.13-80.3-58.34l37.72-219.94-159.79-155.76c-32.85-32.02-14.72-87.8,30.67-94.4l220.83-32.09,98.76-200.1c20.3-41.13,78.95-41.13,99.25,0Z"/>
    <g>
      <path class="uuid-561b8b09-7647-405c-aa33-0316273fa167" d="m2403.23,3144.38c-38.07-21.1-69.9-52.52-92.03-90.86l-.09-.16c-17.79-30.73-46.44-53.25-80.67-63.43l-1.08-.32c-13.12-3.92-26.59-5.89-40.14-5.89-19.54,0-38.47,4.02-56.26,11.94l-17.75,7.9c-24.1,10.73-49.16,17.41-74.75,19.98l-411.71,657.8,312.79-59.8,82.91,307.47,472.84-755.46c-33.04-3.23-65.17-13.14-94.06-29.16Z"/>
      <path class="uuid-561b8b09-7647-405c-aa33-0316273fa167" d="m2919.12,2978.83l-.27-.12c-17.92-7.98-36.91-12.02-56.44-12.02-15.58,0-30.89,2.62-45.52,7.79l-1.35.47c-31.67,11.14-58.25,33.05-74.78,61.67l-9.76,16.9c-22.14,38.34-53.96,69.76-92.03,90.86-35.8,19.84-76.56,30.33-117.87,30.33-6.05,0-12.08-.25-18.08-.7l472.54,754.99,82.91-307.47,312.79,59.8-435.51-695.82c-5.59-2.02-11.14-4.24-16.63-6.68Z"/>
    </g>
  </g>
</svg>