<svg xmlns="http://www.w3.org/2000/svg" viewBox="0 0 299.71 299.71"><defs><style>.cls-1{fill:#ec6807;}.cls-2{fill:none;stroke:#ec680a;stroke-miterlimit:10;stroke-width:14px;}</style></defs><g id="Laag_2" data-name="Laag 2"><g id="Laag_1-2" data-name="Laag 1"><path class="cls-1" d="M241.06,98.54a29.8,29.8,0,0,1-6.53,10.83,202.4,202.4,0,0,1-17.79,18.55,53.17,53.17,0,0,1-7.35,5.51,23.84,23.84,0,0,1-21.56,2.25,2.9,2.9,0,0,0-3.53.85q-43.43,45.87-86.92,91.69a51.24,51.24,0,0,1-4,3.74,2.91,2.91,0,0,1-2.85.42c-6.58-1.81-10.59-6.27-12.93-12.46a4.11,4.11,0,0,1,1.26-4.65c2.17-2.12,4.37-4.21,6.57-6.29l64.18-60.91,22.66-21.55.68-.65c1.31-1.28,1.4-1.74.67-3.41a25.06,25.06,0,0,1-2.26-11.79,26.44,26.44,0,0,1,6.46-15.35,171.65,171.65,0,0,1,21.91-21.81L201.45,72a21.24,21.24,0,0,1,8.65-4.89h1.46c1.2.46,2.44.83,3.59,1.39,2.36,1.15,2.42,1.55.64,3.41q-9.27,9.66-18.56,19.3c-2,2.06-3.95,4.13-5.86,6.26a2.71,2.71,0,0,0-.08,4c1.33,1.48,2.64,1.7,4.25.64a17.29,17.29,0,0,0,1.74-1.32q10.32-8.77,20.61-17.57c2-1.68,3.92-3.36,5.89-5,1.26-1.06,1.62-1,2.82.13.41.38.79.78,1.19,1.17,2.49,2.41,2.49,2.65.26,5.26q-11,12.84-21.91,25.71a9.31,9.31,0,0,0-1.28,1.9,2.8,2.8,0,0,0,.72,3.42,2.7,2.7,0,0,0,3.52.58,13.65,13.65,0,0,0,2.29-1.8l15.71-15c3-2.81,5.88-5.64,8.89-8.4,1.32-1.2,2.11-1.05,3,.53s1.41,3,2.1,4.53Z"/><path class="cls-1" d="M118.36,111.71a27.11,27.11,0,0,1-2.28,10.84c-.82,1.89-.72,2.31.8,3.75l21,19.84.46.44c1.13,1.12,1.14,1.45,0,2.55q-4.67,4.51-9.36,9c-1.4,1.34-2.23,1.31-3.63-.15l-19.17-20c-1.76-1.84-2-1.89-4.34-.91-9.13,3.86-17.65,2.49-25.65-3.06-12.53-8.68-19.74-20.75-22.57-35.59-.68-3.56-1.08-7.11-.15-10.68,1.85-7.1,8.93-15.22,20-14,10.71,1.19,20.54,4.78,29.05,11.56a48.7,48.7,0,0,1,13.12,15.56A24.33,24.33,0,0,1,118.36,111.71Z"/><path class="cls-1" d="M199.38,232.51a6.2,6.2,0,0,1-4.63-1.55c-2.41-2.26-4.78-4.58-7.05-7q-18.3-19.38-36.55-38.81c-1.73-1.84-1.72-2,0-3.81,3-3.2,6-6.38,9-9.59,1.82-2,2.6-2,4.57-.11q11,10.41,21.89,20.83,11.47,10.9,23,21.78c2.49,2.36,2.83,4.29,1.4,7.41a21.17,21.17,0,0,1-8.5,9.52A19.41,19.41,0,0,1,199.38,232.51Z"/>
<!-- <circle class="cls-2" cx="149.86" cy="149.86" r="142.86"/> -->
</g></g>
</svg>